<?xml version="1.0" encoding="utf-8"?>
<!-- Generator: Adobe Illustrator 12.0.0, SVG Export Plug-In . SVG Version: 6.00 Build 51448)  -->
<!DOCTYPE svg PUBLIC "-//W3C//DTD SVG 1.1//EN" "http://www.w3.org/Graphics/SVG/1.1/DTD/svg11.dtd" [
	<!ENTITY ns_svg "http://www.w3.org/2000/svg">
	<!ENTITY ns_xlink "http://www.w3.org/1999/xlink">
]>
<svg  version="1.1" id="Layer_1" xmlns="&ns_svg;" xmlns:xlink="&ns_xlink;" width="755.146" height="52.209"
	 viewBox="0 0 755.146 52.209" overflow="visible" enable-background="new 0 0 755.146 52.209" xml:space="preserve">
<g>
	<g>
		<g>
			<path fill="#3AB54A" d="M77.515,44.631l-0.054-0.013l-0.054-0.007c-2.554-0.313-4.928-1.475-6.865-3.361
				c-2.217-2.216-3.444-5.104-3.444-8.118l-0.056-14.414c0-5.94,5.548-11.354,11.641-11.354h13.845
				c6.637,0,12.037,5.323,12.037,11.866c0,6.46-5.277,11.759-11.763,11.811l-0.013,0.001c-2.984,0.055-10.899,0.055-13.88,0.055
				c-0.475,0-0.812,0.183-1.078,0.36l-0.146,0.098l-0.109,0.137c-0.589,0.736-0.554,1.773,0.083,2.41
				c0.24,0.239,0.629,0.556,1.251,0.556h20.005c1.439,0,2.59,0.511,3.42,1.516c0.745,0.901,1.171,2.183,1.171,3.515
				c0,2.503-1.419,5.029-4.591,5.029H78.908C78.391,44.717,77.902,44.717,77.515,44.631z M78.908,17.423
				c-0.497,0-0.831,0.239-1.01,0.368l-0.148,0.104l-0.093,0.085c-0.637,0.637-0.672,1.673-0.083,2.41l0.109,0.137l0.146,0.097
				c0.267,0.177,0.603,0.359,1.078,0.359h13.676c0.578,0,1.108-0.226,1.457-0.62c0.32-0.362,0.461-0.833,0.4-1.328l0.008,0.14
				c0-0.982-0.794-1.751-1.808-1.751H78.908z"/>
			<path fill="#3AB54A" d="M134.31,34.545c0.966,0,1.752-0.785,1.752-1.752V12.055c0-3.201,2.554-4.634,5.086-4.634
				s5.086,1.433,5.086,4.634v20.739c0,0.585,0,1.007-0.086,1.395l-0.012,0.053l-0.006,0.055c-0.345,2.815-1.393,4.944-3.398,6.9
				c-2.096,2.147-5.393,3.521-8.421,3.521h-13.449c-3.028,0-6.326-1.374-8.403-3.503c-1.957-1.909-3.006-4.046-3.419-6.94
				c0,0,0,0,0-0.001c0-0.026-0.102-1.479-0.102-1.479V12.055c0-3.201,2.54-4.634,5.058-4.634c2.517,0,5.058,1.433,5.058,4.634
				v20.682c0,1.014,0.819,1.809,1.865,1.809H134.31z"/>
			<path fill="#3AB54A" d="M162.819,7.421h20.739c3.2,0,4.633,2.555,4.633,5.086c0,2.531-1.433,5.085-4.633,5.085h-20.682
				c-1.015,0-1.809,0.794-1.809,1.809v13.392c0,1.015,0.77,1.809,1.752,1.809h13.45c0.978,0,1.745-0.764,1.745-1.738
				c0-0.976-0.75-1.709-1.745-1.709h-7.403c-3.23,0-4.676-2.554-4.676-5.085c0-2.533,1.445-5.087,4.676-5.087h7.403
				c0.583,0,1.005,0,1.393,0.087l0.054,0.011l0.053,0.007c2.816,0.345,4.944,1.393,6.902,3.397
				c4.632,4.634,4.632,12.155,0.01,16.777c-2.261,2.26-5.17,3.455-8.412,3.455h-13.45c-3.243,0-6.152-1.195-8.412-3.455
				c-2.166-2.166-3.512-5.411-3.512-8.469V19.345c0-3.028,1.375-6.326,3.502-8.403c1.962-1.961,4.1-3.013,6.942-3.419
				C161.343,7.524,162.819,7.421,162.819,7.421z"/>
			<path fill="#3AB54A" d="M202.901,44.631l-0.053-0.013l-0.054-0.007c-2.644-0.322-5.071-1.525-6.833-3.385
				c-2.22-2.171-3.476-5.151-3.476-8.208c-0.057-2.422,0.955-4.566,2.848-6.063l1.185-0.937l-1.234-0.872
				c-2.064-1.461-2.799-3.984-2.799-5.858c0-3.209,1.224-6.174,3.446-8.347c2.211-2.333,4.962-3.144,6.885-3.418l0.043-0.006
				l0.042-0.01c0.388-0.086,0.766-0.086,1.338-0.086h20.795c3.202,0,4.634,2.526,4.634,5.03c0,2.503-1.433,5.029-4.634,5.029
				h-20.738c-1.015,0-1.808,0.782-1.808,1.78s0.793,1.78,1.808,1.78h21.134l0.528,0.061c0,0,0.125,0.019,0.202,0.03
				c0.055,0.019,0.126,0.045,0.126,0.045c0.028,0.007-0.061-0.029-0.061-0.029l0.104,0.043c0,0,0.105,0.02,0.21,0.04
				c0.003,0,0.011,0.003,0.013,0.004c-0.051-0.01-0.108-0.02-0.108-0.02c0.002,0.001,0.071,0.016,0.153,0.033
				c0.192,0.057,0.643,0.19,0.643,0.19c-0.506-0.119,0.283,0.113,0.283,0.113s-0.278-0.065-0.407-0.096
				c0.093,0.056,0.176,0.105,0.293,0.174c0.058,0.042,0.117,0.085,0.117,0.085l-0.011-0.006c0.025,0.017,0.207,0.125,0.266,0.161
				c0.091,0.066,0.139,0.101,0.181,0.132c0.002,0.001,0.002,0.001,0.002,0.003c-0.003-0.002-0.021-0.016-0.021-0.016
				s0.015,0.012,0.022,0.017c0.083,0.114,0.279,0.38,0.279,0.38s0.089,0.03,0.14,0.047c0.07,0.094,0.146,0.198,0.146,0.198
				l-0.074-0.084c0.017,0.026,0.244,0.311,0.244,0.311l-0.075-0.085c0.016,0.023,0.184,0.236,0.227,0.29
				c0.022,0.042,0.051,0.095,0.051,0.095c0.001,0,0.001,0,0.001,0c0-0.003-0.004-0.024-0.008-0.041
				c0.025,0.035,0.035,0.047,0.055,0.073c0.067,0.138,0.166,0.334,0.187,0.374c-0.006-0.008-0.028-0.037-0.028-0.037
				s0.011,0.03,0.012,0.033c-0.022-0.024-0.044-0.05-0.044-0.05c0.004,0.007,0.024,0.031,0.049,0.064
				c0.03,0.082,0.246,0.664,0.246,0.664l0.069,0.214l-0.057-0.357l0.086,0.499c0.003,0.01-0.029-0.216-0.029-0.216l0.007,0.053
				c0,0,0.025,0.101,0.05,0.198c0,0.005,0,0.131,0,0.131s0.034,0.113,0.065,0.225c0.012,0.082,0.031,0.202,0.048,0.309
				c0,0.079,0,0.215,0,0.215s0.033,0.204,0.056,0.353c0,0.079,0,0.353,0,0.429c-0.025,0.153-0.056,0.351-0.056,0.351
				s0,0.179,0,0.239c-0.026,0.146-0.057,0.325-0.057,0.325c0,0.035,0.063-0.224,0.063-0.224l-0.032,0.13l-0.087,0.375v0.035
				c0,0,0.034-0.137,0.049-0.205c0,0.001-0.106,0.454-0.106,0.454l0.033-0.226c-0.003,0.008-0.089,0.507-0.089,0.507l0.045-0.317
				c-0.369,1.259-1.429,3.368-4.397,3.368h-20.738c-1.015,0-1.808,0.783-1.808,1.781s0.793,1.779,1.808,1.779h20.738
				c3.202,0,4.634,2.527,4.634,5.03s-1.433,5.029-4.634,5.029h-20.795C203.667,44.717,203.289,44.717,202.901,44.631z"/>
			<path fill="#3AB54A" d="M233.997,40.14V19.175c0-0.518,0-1.006,0.086-1.394l0.012-0.053l0.006-0.055
				c0.32-2.611,1.499-5.001,3.408-6.91c4.628-4.628,12.203-4.626,16.885,0.004c2.223,2.224,3.451,5.131,3.451,8.182l0.057,13.963
				c0,0.572,0.225,1.103,0.621,1.451c0.36,0.32,0.833,0.461,1.328,0.399l-0.142,0.009c0.983,0,1.753-0.793,1.753-1.808V12.055
				c0-3.23,2.54-4.676,5.057-4.676c2.517,0,5.058,1.446,5.058,4.676v20.794c0,6.669-5.35,12.094-11.923,12.094
				c-6.523,0-11.872-5.301-11.923-11.819c0-0.015,0-13.949,0-13.949c0-0.448-0.198-0.892-0.558-1.251
				c-0.636-0.637-1.671-0.672-2.409-0.083l-0.138,0.11l-0.097,0.146c-0.232,0.348-0.359,0.731-0.359,1.079V40.14
				c0,3.201-2.555,4.634-5.085,4.634C236.551,44.774,233.997,43.341,233.997,40.14z"/>
			<path fill="#3AB54A" d="M286.365,44.631l-0.054-0.013l-0.054-0.007c-2.645-0.322-5.071-1.525-6.833-3.385
				c-2.22-2.171-3.477-5.151-3.477-8.208c-0.056-2.422,0.956-4.566,2.849-6.063l1.186-0.937l-1.234-0.872
				c-2.064-1.461-2.8-3.984-2.8-5.858c0-3.209,1.224-6.174,3.447-8.347c2.211-2.333,4.962-3.144,6.886-3.418l0.041-0.006l0.043-0.01
				c0.387-0.086,0.765-0.086,1.337-0.086h20.796c3.2,0,4.633,2.526,4.633,5.03c0,2.503-1.433,5.029-4.633,5.029h-20.74
				c-1.014,0-1.808,0.782-1.808,1.78s0.794,1.78,1.808,1.78h21.135l0.527,0.061c0,0,0.124,0.019,0.201,0.03
				c0.055,0.019,0.126,0.045,0.126,0.045c0.029,0.007-0.062-0.029-0.062-0.029l0.106,0.043c0,0,0.104,0.02,0.209,0.04
				c0.003,0,0.01,0.003,0.013,0.004c-0.051-0.01-0.109-0.02-0.109-0.02c0.003,0.001,0.072,0.016,0.153,0.033
				c0.193,0.057,0.643,0.19,0.643,0.19c-0.506-0.119,0.281,0.113,0.281,0.113s-0.277-0.065-0.406-0.096
				c0.094,0.056,0.176,0.105,0.292,0.174c0.059,0.042,0.117,0.085,0.117,0.085l-0.011-0.006c0.026,0.017,0.208,0.125,0.267,0.161
				c0.091,0.066,0.138,0.101,0.181,0.132c0.002,0.001,0.002,0.001,0.002,0.003c-0.003-0.002-0.022-0.016-0.022-0.016
				s0.016,0.012,0.024,0.017c0.083,0.114,0.279,0.38,0.279,0.38s0.089,0.03,0.141,0.047c0.068,0.094,0.146,0.198,0.146,0.198
				l-0.075-0.084c0.019,0.026,0.245,0.311,0.245,0.311l-0.074-0.085c0.016,0.023,0.184,0.236,0.226,0.29
				c0.023,0.042,0.052,0.095,0.052,0.095c0.001,0,0.001,0,0.001,0c0-0.003-0.005-0.024-0.008-0.041
				c0.026,0.035,0.034,0.047,0.054,0.073c0.068,0.138,0.167,0.334,0.187,0.374c-0.006-0.008-0.027-0.037-0.027-0.037
				s0.012,0.03,0.013,0.033c-0.021-0.024-0.043-0.05-0.043-0.05c0.004,0.007,0.023,0.031,0.048,0.064
				c0.031,0.082,0.247,0.664,0.247,0.664l0.07,0.214l-0.058-0.357l0.085,0.499c0.004,0.01-0.028-0.216-0.028-0.216l0.007,0.053
				c0,0,0.025,0.101,0.049,0.198c0,0.005,0,0.131,0,0.131s0.034,0.113,0.066,0.225c0.012,0.082,0.031,0.202,0.048,0.309
				c0,0.079,0,0.215,0,0.215s0.031,0.204,0.056,0.353c0,0.079,0,0.353,0,0.429c-0.026,0.153-0.056,0.351-0.056,0.351
				s0,0.179,0,0.239c-0.026,0.146-0.057,0.325-0.057,0.325c0,0.035,0.063-0.224,0.063-0.224l-0.032,0.13l-0.088,0.375v0.035
				c0,0,0.034-0.137,0.051-0.205c0,0.001-0.106,0.454-0.106,0.454l0.033-0.226c-0.004,0.008-0.09,0.507-0.09,0.507l0.046-0.317
				c-0.369,1.259-1.429,3.368-4.396,3.368h-20.74c-1.014,0-1.808,0.783-1.808,1.781s0.794,1.779,1.808,1.779h20.74
				c3.2,0,4.633,2.527,4.633,5.03s-1.433,5.029-4.633,5.029h-20.796C287.13,44.717,286.752,44.717,286.365,44.631z"/>
		</g>
		<g>
			<path fill="#FFFFFF" d="M354.891,18.897c0-3.055,1.227-5.962,3.455-8.19c4.654-4.654,12.226-4.654,16.879,0
				c1.847,1.847,3.025,4.244,3.41,6.933c0,0,0,0,0,0c0,0.026,0.103,1.479,0.103,1.479v20.965c0,3.201-2.554,4.634-5.085,4.634
				s-5.086-1.433-5.086-4.634V19.119c0-0.349-0.128-0.731-0.359-1.08l-0.097-0.146l-0.138-0.109
				c-0.736-0.589-1.772-0.554-2.409,0.083c-0.359,0.359-0.557,0.803-0.557,1.251v13.957c-0.053,6.508-5.401,11.81-11.923,11.81
				c-6.524,0-11.873-5.302-11.924-11.818c0-0.012-0.056-13.97-0.056-13.97c0-0.327-0.127-0.709-0.359-1.058l-0.063-0.093
				l-0.079-0.079c-0.666-0.667-1.836-0.667-2.502,0l-0.08,0.079c0,0-0.014,0.021-0.028,0.042c-0.215,0-0.449,0-0.449,0v22.095
				c0,3.201-2.541,4.634-5.057,4.634c-2.518,0-5.059-1.433-5.059-4.634V19.119c0-0.517,0-1.007,0.086-1.394l0.012-0.054l0.006-0.054
				c0.32-2.612,1.498-5.001,3.407-6.911c4.639-4.638,12.185-4.638,16.824,0c2.268,2.216,3.512,5.12,3.512,8.186v13.957
				c0,0.578,0.227,1.11,0.62,1.458c0.327,0.289,0.746,0.429,1.188,0.408c0.41,0.019,0.802-0.112,1.116-0.385
				c0.404-0.351,0.635-0.89,0.635-1.481v0.006L354.891,18.897z"/>
			<path fill="#FFFFFF" d="M384.177,12.451c0-2.504,1.436-5.03,4.636-5.03h19.891c0.585,0,1.007,0,1.395,0.086l0.054,0.013
				l0.053,0.007c2.613,0.319,4.983,1.478,6.854,3.35c2.269,2.217,3.513,5.101,3.513,8.13v14.353c0,6.052-5.439,11.358-11.642,11.358
				H395.14c-6.604,0-11.979-5.324-11.979-11.868c0-6.429,5.277-11.702,11.763-11.753h0.013c2.871-0.056,10.786-0.056,13.767-0.056
				c0.479,0,0.935-0.183,1.252-0.5c0.348-0.348,0.542-0.808,0.542-1.274c0-0.031-0.001-0.062-0.003-0.092
				c-0.021-0.401-0.216-0.76-0.493-1.05c-0.312-0.398-0.767-0.645-1.298-0.645h-19.891
				C385.613,17.479,384.177,14.954,384.177,12.451z M395.085,31.097c-1.063,0-1.865,0.779-1.865,1.81
				c0,0.998,0.802,1.751,1.865,1.751h13.618c0.536,0,0.933-0.271,1.161-0.477c0.375-0.302,0.605-0.743,0.63-1.216
				c0.002-0.031,0.003-0.062,0.003-0.093c0-0.466-0.194-0.926-0.542-1.274c-0.317-0.317-0.773-0.501-1.252-0.501H395.085z"/>
			<path fill="#FFFFFF" d="M428.407,44.388c-1.838-0.754-2.893-2.302-2.893-4.248V11.999c0-3.23,2.541-4.676,5.058-4.676
				c2.519,0,5.06,1.446,5.06,4.676v15.715L454.182,8.72c1.017-1.016,2.244-1.496,3.542-1.379c1.175,0.106,2.395,0.71,3.34,1.657
				c1.783,1.782,2.559,4.604,0.27,6.892l-10.001,10.184l10.057,10.117c2.26,2.259,1.473,5.069-0.309,6.851
				c-1.784,1.782-4.593,2.57-6.851,0.312l-10.019-10.018l-9.784,9.968C432.962,44.792,430.486,45.24,428.407,44.388z"/>
			<path fill="#FFFFFF" d="M477.11,44.631l-0.054-0.013l-0.055-0.007c-2.554-0.313-4.928-1.475-6.865-3.361
				c-2.217-2.216-3.444-5.104-3.444-8.118l-0.057-14.414c0-5.94,5.549-11.354,11.642-11.354h13.845
				c6.638,0,12.036,5.323,12.036,11.866c0,6.46-5.276,11.759-11.762,11.811l-0.013,0.001c-2.984,0.055-10.9,0.055-13.88,0.055
				c-0.476,0-0.812,0.183-1.079,0.36l-0.146,0.098l-0.11,0.137c-0.589,0.736-0.553,1.773,0.083,2.41
				c0.239,0.239,0.629,0.556,1.252,0.556h20.004c3.172,0,4.592,2.527,4.592,5.03s-1.42,5.029-4.592,5.029h-20.004
				C477.986,44.717,477.498,44.717,477.11,44.631z M478.503,17.423c-0.497,0-0.831,0.239-1.011,0.368l-0.149,0.104l-0.092,0.085
				c-0.636,0.637-0.672,1.673-0.083,2.41l0.11,0.137l0.146,0.097c0.268,0.177,0.604,0.359,1.079,0.359h13.675
				c0.577,0,1.108-0.226,1.457-0.62c0.32-0.362,0.461-0.833,0.399-1.328l0.009,0.14c0-0.982-0.795-1.751-1.809-1.751H478.503z"/>
			<path fill="#FFFFFF" d="M508.532,40.083V12.055c0-3.201,2.527-4.634,5.029-4.634h20.569c6.669,0,12.095,5.35,12.095,11.924
				c0,6.455-5.195,11.591-11.827,11.697c-0.03,0-1.736,0-1.736,0s0,0.245,0,0.479c-0.021,0.016-0.048,0.024-0.067,0.043
				c-0.348,0.3-0.569,0.719-0.593,1.172c-0.001,0.031-0.004,0.061-0.004,0.092c0,0.467,0.195,0.926,0.544,1.274
				c0.316,0.318,0.773,0.5,1.251,0.5h7.854c3.201,0,4.633,2.555,4.633,5.086s-1.432,5.086-4.633,5.086h-7.854
				c-3.114,0-6.182-1.28-8.412-3.512c-2.576-2.576-3.116-6.089-3.116-8.582c0-1.075-0.76-1.886-1.767-1.886
				c-0.871,0-1.794,0.681-1.794,1.942v7.347c0,3.23-2.555,4.676-5.085,4.676C511.086,44.759,508.532,43.314,508.532,40.083z
				 M518.704,17.536v3.56h15.483c0.578,0,1.108-0.226,1.456-0.621c0.318-0.362,0.462-0.833,0.4-1.328l0.009,0.141
				c0-0.983-0.795-1.752-1.809-1.752H518.704z"/>
			<path fill="#FFFFFF" d="M550.865,39.688c0-2.503,1.446-5.03,4.677-5.03h20.624c0.975,0,1.719-0.639,1.855-1.591l0.011-0.08v-0.08
				c0-0.982-0.843-1.752-1.922-1.752l-13.84-0.058c-3.151,0-5.998-1.211-8.237-3.502c-2.256-2.23-3.494-5.188-3.494-8.335
				s1.238-6.104,3.48-8.323c1.913-1.913,4.302-3.092,6.915-3.411l0.041-0.006l0.043-0.008c0.456-0.091,0.884-0.091,1.475-0.091
				h20.851c3.201,0,4.634,2.526,4.634,5.03c0,2.503-1.433,5.029-4.634,5.029h-20.851c-0.478,0-0.934,0.183-1.251,0.5
				c-0.349,0.348-0.545,0.808-0.545,1.274c0,0.03,0.001,0.062,0.004,0.092c0.024,0.472,0.254,0.915,0.629,1.215
				c0.23,0.208,0.625,0.479,1.163,0.479h13.844c6.508,0.051,11.811,5.375,11.811,11.867c0,6.512-5.426,11.811-12.093,11.811h-20.513
				C552.311,44.717,550.865,42.191,550.865,39.688z"/>
			<path fill="#FFFFFF" d="M592.492,40.309V12.055c0-3.201,2.498-4.634,4.974-4.634h20.626c6.636,0,12.036,5.35,12.036,11.924
				c0,6.47-5.306,11.819-11.826,11.922c-0.031,0-15.694,0-15.694,0v9.042c0,3.23-2.541,4.678-5.057,4.678
				C595.032,44.987,592.492,43.54,592.492,40.309z M602.607,17.536v3.56h15.54c1.064,0,1.866-0.777,1.866-1.808v-0.081L620,19.128
				c-0.137-0.952-0.881-1.592-1.854-1.592H602.607z"/>
			<path fill="#FFFFFF" d="M634.422,40.309V19.401c0-6.606,5.424-11.98,12.093-11.98l13.901,0.057
				c6.23,0,11.696,5.308,11.696,11.358v21.474c0,3.23-2.555,4.678-5.086,4.678c-2.53,0-5.085-1.447-5.085-4.678v-8.98l-15.698-0.062
				h-1.65v9.042c0,3.23-2.554,4.678-5.087,4.678C636.977,44.987,634.422,43.54,634.422,40.309z M646.401,17.592
				c-1.01,0-1.801,0.776-1.801,1.766c0,1.023,0.8,1.795,1.858,1.795h13.676c1.019,0,1.785-0.759,1.785-1.765
				c0-1.007-0.784-1.796-1.785-1.796H646.401z"/>
			<path fill="#FFFFFF" d="M688.698,7.421h20.739c3.23,0,4.676,2.555,4.676,5.086c0,2.531-1.445,5.085-4.676,5.085h-20.682
				c-1.014,0-1.809,0.794-1.809,1.809v13.392c0,1.015,0.795,1.809,1.809,1.809h20.682c3.23,0,4.676,2.539,4.676,5.058
				c0,2.517-1.445,5.058-4.676,5.058h-20.739c-0.517,0-1.007,0-1.395-0.086l-0.051-0.013l-0.056-0.007
				c-2.767-0.337-4.962-1.402-6.91-3.35c-2.131-2.182-3.512-5.51-3.512-8.469V19.345c0-2.978,1.378-6.279,3.512-8.412
				c1.952-1.952,4.09-3.004,6.933-3.41C687.222,7.524,688.698,7.421,688.698,7.421z"/>
			<path fill="#FFFFFF" d="M728.38,44.631l-0.054-0.013l-0.054-0.007c-2.646-0.322-5.07-1.525-6.833-3.385
				c-2.22-2.171-3.477-5.151-3.477-8.208c-0.057-2.422,0.955-4.566,2.848-6.063l1.187-0.937l-1.234-0.872
				c-2.064-1.461-2.8-3.984-2.8-5.858c0-3.209,1.225-6.174,3.446-8.347c2.211-2.333,4.962-3.144,6.886-3.418l0.043-0.006l0.042-0.01
				c0.388-0.086,0.765-0.086,1.337-0.086h20.796c3.201,0,4.633,2.526,4.633,5.03c0,2.503-1.432,5.029-4.633,5.029h-20.738
				c-1.014,0-1.809,0.782-1.809,1.78s0.795,1.78,1.809,1.78h21.133l0.529,0.061c0,0,0.125,0.019,0.201,0.03
				c0.056,0.019,0.127,0.045,0.127,0.045c0.027,0.007-0.063-0.029-0.063-0.029l0.104,0.043c0,0,0.105,0.02,0.209,0.04
				c0.003,0,0.01,0.003,0.014,0.004c-0.052-0.01-0.108-0.02-0.108-0.02c0.002,0.001,0.07,0.016,0.154,0.033
				c0.192,0.057,0.641,0.19,0.641,0.19c-0.506-0.119,0.284,0.113,0.282,0.113c0,0-0.277-0.065-0.405-0.096
				c0.094,0.056,0.176,0.105,0.294,0.174c0.056,0.042,0.114,0.085,0.114,0.085l-0.011-0.006c0.027,0.017,0.208,0.125,0.268,0.161
				c0.09,0.066,0.138,0.101,0.182,0.132c0,0.001,0,0.001,0.002,0.003c-0.003-0.002-0.021-0.016-0.021-0.016s0.015,0.012,0.021,0.017
				c0.085,0.114,0.28,0.38,0.28,0.38s0.087,0.03,0.139,0.047c0.068,0.094,0.146,0.198,0.146,0.198l-0.073-0.084
				c0.018,0.026,0.242,0.311,0.242,0.311l-0.073-0.085c0.015,0.023,0.185,0.236,0.227,0.29c0.021,0.042,0.051,0.095,0.051,0.095
				c0,0,0.001,0,0.001,0c0-0.003-0.005-0.024-0.008-0.041c0.025,0.035,0.034,0.047,0.055,0.073c0.067,0.138,0.165,0.334,0.186,0.374
				c-0.007-0.008-0.027-0.037-0.027-0.037s0.011,0.03,0.013,0.033c-0.021-0.024-0.045-0.05-0.045-0.05
				c0.005,0.007,0.024,0.031,0.05,0.064c0.031,0.082,0.246,0.664,0.246,0.664l0.071,0.214l-0.059-0.357l0.086,0.499
				c0.004,0.01-0.029-0.216-0.029-0.216l0.009,0.053c0,0,0.024,0.101,0.048,0.198c0,0.005,0,0.131,0,0.131s0.034,0.113,0.065,0.225
				c0.013,0.082,0.03,0.202,0.047,0.309c0,0.079,0,0.215,0,0.215s0.032,0.204,0.057,0.353c0,0.079,0,0.353,0,0.429
				c-0.024,0.153-0.057,0.351-0.057,0.351s0,0.179,0,0.239c-0.025,0.146-0.057,0.325-0.057,0.325c0,0.035,0.064-0.224,0.064-0.224
				l-0.033,0.13l-0.087,0.375v0.035c0,0,0.034-0.137,0.051-0.205c0,0.001-0.107,0.454-0.107,0.454l0.033-0.226
				c-0.004,0.008-0.09,0.507-0.09,0.507l0.046-0.317c-0.368,1.259-1.43,3.368-4.396,3.368h-20.738c-1.014,0-1.809,0.783-1.809,1.781
				s0.795,1.779,1.809,1.779h20.738c3.201,0,4.633,2.527,4.633,5.03s-1.432,5.029-4.633,5.029h-20.796
				C729.145,44.717,728.768,44.717,728.38,44.631z"/>
		</g>
	</g>
	<path fill="#3AB54A" d="M46.479,30.093c-0.182,0.938-0.428,1.857-0.733,2.746l4.34,3.59c-0.813,1.885-1.839,3.656-3.053,5.279
		l-5.28-1.963c-0.623,0.714-1.295,1.385-2.008,2.008l1.963,5.281c-1.624,1.212-3.394,2.239-5.278,3.051l-3.59-4.339
		c-0.89,0.305-1.807,0.551-2.747,0.732l-0.94,5.551c-1,0.117-2.017,0.18-3.049,0.18c-1.031,0-2.048-0.063-3.049-0.18l-0.939-5.551
		c-0.94-0.182-1.857-0.428-2.747-0.732l-3.59,4.339c-1.884-0.812-3.654-1.839-5.279-3.051l1.964-5.281
		c-0.714-0.623-1.385-1.294-2.008-2.008l-5.281,1.963c-1.212-1.624-2.24-3.395-3.052-5.279l4.339-3.59
		c-0.305-0.889-0.55-1.808-0.733-2.746l-5.551-0.939C0.062,28.153,0,27.137,0,26.105c0-1.033,0.062-2.049,0.178-3.05l5.551-0.939
		c0.183-0.939,0.429-1.857,0.733-2.747l-4.339-3.59c0.813-1.884,1.84-3.654,3.052-5.278l5.281,1.963
		c0.623-0.714,1.293-1.385,2.008-2.008L10.5,5.175c1.625-1.213,3.395-2.239,5.279-3.052l3.59,4.339
		c0.89-0.305,1.807-0.551,2.747-0.734l0.939-5.551C24.056,0.062,25.073,0,26.104,0c1.032,0,2.05,0.062,3.049,0.178l0.94,5.551
		c0.939,0.183,1.857,0.429,2.747,0.734l3.59-4.34c1.884,0.812,3.655,1.839,5.278,3.052l-1.963,5.281
		c0.713,0.623,1.384,1.294,2.008,2.008l5.28-1.964c1.213,1.624,2.24,3.395,3.053,5.279l-4.34,3.59
		c0.305,0.89,0.551,1.807,0.733,2.747l5.551,0.939c0.116,1.001,0.179,2.017,0.179,3.05c0,1.032-0.063,2.048-0.179,3.049
		L46.479,30.093z"/>
	<path fill="#FFFFFF" d="M15.723,31.153L15.723,31.153l25.49-8.822c-1.687-6.775-7.811-11.796-15.109-11.796
		c-8.599,0-15.569,6.971-15.569,15.57c0,8.599,6.971,15.569,15.569,15.569c8.256,0,15.009-6.425,15.536-14.547l-4.266,1.478l0,0
		c-1.143,5.172-5.753,9.041-11.27,9.041C21.54,37.646,17.596,34.998,15.723,31.153L15.723,31.153L15.723,31.153 M36.215,20.54
		l-21.5,7.439c-0.1-0.609-0.153-1.235-0.153-1.874c0-6.375,5.167-11.542,11.542-11.542C30.46,14.563,34.251,16.977,36.215,20.54z"/>
</g>
</svg>
